<svg width="101" height="101" viewBox="0 0 101 101" fill="none" xmlns="http://www.w3.org/2000/svg">
<g id="covid">
<path id="Vector" d="M20.8207 49.3807C20.8207 49.6238 20.8207 49.9883 20.8207 50.2313C20.8207 50.8388 20.8206 51.4463 20.9376 52.0539C21.0546 53.6335 21.4056 55.213 21.7565 56.7926C21.8734 57.5217 22.1074 58.1292 22.3413 58.7367C22.9261 60.4378 23.5109 61.8959 24.3297 63.4755C24.9145 64.5691 25.4993 65.5411 26.2012 66.5132C27.2539 67.9712 28.4236 69.3078 29.5932 70.6444C30.412 71.3734 31.2308 72.1025 32.0495 72.8315C32.7513 73.4391 33.4532 73.9251 34.2719 74.4111C36.3774 75.7477 38.7167 76.9627 41.1731 77.8133C41.7579 78.0563 42.4596 78.1778 43.1615 78.4208C45.3838 79.0284 47.6062 79.3929 50.0626 79.5144C50.4135 79.5144 50.8813 79.5144 51.3492 79.5144C51.8171 79.5144 52.285 79.5144 52.7529 79.5144C54.9753 79.3929 57.1976 79.0284 59.303 78.5423C60.0048 78.2993 60.7066 78.1778 61.4084 77.9348C64.0986 76.9628 66.6719 75.6262 69.0113 74.0466C70.064 73.3176 71.1168 72.467 72.0525 71.6165C72.1695 71.495 72.2864 71.3734 72.4033 71.3734C73.4561 70.4014 74.5087 69.1863 75.4445 67.9713C75.9123 67.3637 76.3803 66.7562 76.7312 66.1487C78.2518 63.9615 79.4215 61.5314 80.2403 58.9798C80.7081 57.7647 80.9419 56.4281 81.2929 55.2131C81.6438 53.3905 81.8777 51.4463 81.8777 49.5022C81.8777 48.6517 81.8777 47.9226 81.7608 47.0721C81.6438 46.3431 81.6438 45.4925 81.5269 44.7635C80.942 41.2398 79.7723 37.9591 78.1348 34.9214C77.7839 34.3139 77.5499 33.8279 77.199 33.3419C76.0293 31.5193 74.6257 29.8182 72.9882 28.2386C72.6373 27.8741 72.4034 27.631 72.0525 27.388C71.1168 26.5375 70.181 25.8084 69.2453 25.0794C67.2568 23.6213 65.0345 22.5278 62.6951 21.5557C62.2273 21.4342 61.7593 21.1912 61.2914 21.0697C58.7181 20.2191 56.0279 19.6116 53.2206 19.4901C52.6358 19.4901 52.051 19.4901 51.4661 19.4901C50.7643 19.4901 49.9457 19.4901 49.2439 19.6116C46.3197 19.8546 43.5124 20.4622 40.8221 21.4342C40.5882 21.5557 40.3543 21.5557 40.1203 21.6772C39.7694 21.7987 39.4185 21.9202 39.0676 22.0417C36.8452 23.0138 34.7399 24.2289 32.8684 25.6869C31.8157 26.5375 30.7629 27.388 29.8271 28.3601C29.5932 28.6031 29.2423 28.9676 29.0084 29.2106C27.6048 30.6687 26.3182 32.3698 25.2655 34.1924C24.7976 34.9214 24.4467 35.529 24.0958 36.258C23.1601 38.2021 22.3413 40.2677 21.8734 42.3334C21.6395 43.3054 21.4055 44.399 21.2886 45.371C20.9377 46.4646 20.8207 47.9227 20.8207 49.3807Z" fill="#124350"/>
<path id="Vector_2" d="M51.2324 7.09642C53.3642 7.09642 55.0924 5.5732 55.0924 3.69423C55.0924 1.81525 53.3642 0.292038 51.2324 0.292038C49.1006 0.292038 47.3724 1.81525 47.3724 3.69423C47.3724 5.5732 49.1006 7.09642 51.2324 7.09642Z" fill="#124350"/>
<path id="Vector_3" d="M50.1798 5.51683C50.5307 5.51683 50.8816 5.51683 51.2325 5.51683C51.5834 5.51683 51.9343 5.51683 52.2852 5.51683C51.8174 7.58245 51.2325 10.9846 51.9343 15.2374C52.87 20.7052 55.6773 24.4719 57.0809 26.173C55.0924 25.93 53.221 25.687 51.2325 25.4439C49.2441 25.5654 47.2556 25.8084 45.2672 25.93C46.7878 23.9858 49.1271 20.2191 50.1798 14.9944C50.9985 11.1061 50.6476 7.70395 50.1798 5.51683Z" fill="#124350"/>
<path id="Vector_4" d="M31.8156 16.0879C32.6344 17.546 34.5058 18.032 36.2603 17.303C36.4942 17.1815 36.6112 17.1815 36.8451 17.06C37.079 16.9385 37.313 16.817 37.4299 16.5739C38.8336 15.4804 39.1845 13.5363 38.3657 12.1997C37.43 10.6201 35.2076 10.1341 33.3361 11.2276C31.5816 12.3212 30.8798 14.5083 31.8156 16.0879Z" fill="#124350"/>
<path id="Vector_5" d="M35.2077 16.2094C35.5586 16.5739 35.9094 16.8169 36.2603 17.303C36.7281 17.789 37.1961 18.3965 37.664 19.1256C38.2488 19.9761 38.5997 20.8267 38.9506 21.7987C40.4712 25.8085 39.6524 29.6967 39.4185 31.1547C39.8864 31.0332 40.3542 30.9117 40.822 30.7902C41.9917 30.4257 43.1614 30.0612 44.448 29.8182C45.1498 29.2106 45.7347 28.4816 46.4365 27.8741C46.3196 27.7526 46.0856 27.6311 45.8517 27.5095C44.916 26.7805 43.7462 25.93 42.5766 24.7149C41.8748 23.9858 41.173 23.2568 40.5882 22.4063C40.3542 22.1633 40.1203 21.7987 40.0033 21.5557C39.4185 20.8267 38.9506 19.9761 38.4827 19.1256C38.1318 18.3965 37.7809 17.546 37.43 16.817C37.196 16.3309 37.0792 15.8449 36.9622 15.4804C36.6113 15.6019 36.3773 15.8449 36.0264 15.9664C35.7925 15.9664 35.4416 16.0879 35.2077 16.2094Z" fill="#124350"/>
<path id="Vector_6" d="M8.65624 44.1559C10.2938 44.5205 11.9314 43.6699 12.6332 41.9688C12.7501 41.7258 12.7501 41.6043 12.867 41.3613C12.867 41.2398 12.9841 40.9968 12.9841 40.8753C13.2181 39.0527 12.1652 37.3516 10.5277 36.8655C8.77318 36.3795 6.78476 37.7161 6.31689 39.6602C5.84902 41.7258 6.78476 43.6699 8.65624 44.1559Z" fill="#124350"/>
<path id="Vector_7" d="M11.2294 41.9688C11.6972 41.9688 12.165 41.9688 12.7498 41.9688C14.2704 42.0903 16.142 42.4549 18.2474 43.3054C19.4171 43.7914 20.4698 44.5205 21.1716 45.0065C21.5225 45.2495 21.7564 45.4925 21.9903 45.7356C23.6279 45.8571 25.2654 45.8571 26.9029 45.9786H27.02L27.2539 45.0065C27.2539 45.0065 27.2539 45.0065 27.2539 44.885C27.3708 44.5205 27.3708 44.2775 27.4877 43.913C25.6163 43.1839 23.8618 42.4549 21.9903 41.8473C21.8733 41.8473 21.7563 41.9688 21.6394 41.9688C20.8206 42.2119 19.7679 42.3334 18.5982 42.3334C16.1419 42.3334 14.2705 41.4828 12.9839 40.7538C12.399 40.3893 12.048 40.1462 11.6971 39.9032C11.5801 40.2677 11.5802 40.5108 11.4632 40.8753C11.3463 41.3613 11.2294 41.6043 11.2294 41.9688Z" fill="#124350"/>
<path id="Vector_8" d="M6.43381 61.7744C7.01865 63.84 8.89025 65.0551 10.6448 64.5691C12.2823 64.2046 13.218 62.5035 13.1011 60.8024C13.1011 60.5594 13.1011 60.3164 12.9841 60.0733C12.8671 59.8303 12.8671 59.5873 12.7501 59.3443C12.0483 57.7647 10.4107 56.7927 8.77317 57.1572C6.90168 57.6432 5.96594 59.7088 6.43381 61.7744Z" fill="#124350"/>
<path id="Vector_9" d="M11.3466 59.4658C11.4635 59.8303 11.4635 60.0733 11.5804 60.4378C11.6974 60.8024 11.6975 61.0454 11.8145 61.4099C12.1654 61.1669 12.6332 61.0454 13.1011 60.8024C14.7386 60.0733 16.8441 59.3443 19.4174 58.9798C20.4701 58.8583 21.4057 58.7368 22.2245 58.7368C25.1487 58.6153 27.605 59.1013 29.2425 59.4658C28.6577 58.4938 27.9559 57.4002 27.3711 56.4281C27.1371 55.3346 27.0202 54.241 26.7862 53.1474C25.7335 54.1195 23.979 55.5776 21.6396 56.7926C20.8209 57.1572 20.0021 57.6432 19.0664 58.0077C16.6101 58.9798 14.3877 59.3443 12.6332 59.4658C12.2823 59.4658 11.6975 59.4658 11.3466 59.4658Z" fill="#124350"/>
<path id="Vector_10" d="M37.4301 91.4221C39.4185 92.1511 41.524 91.3006 42.2259 89.478C42.8107 88.0199 41.9919 86.1973 40.4713 85.3467C40.2374 85.2252 40.0034 85.1037 39.7694 84.9822C39.5355 84.8607 39.3016 84.8607 39.0676 84.8607C37.3131 84.4962 35.5586 85.3467 34.9738 86.9263C34.3889 88.7489 35.4416 90.693 37.4301 91.4221Z" fill="#124350"/>
<path id="Vector_11" d="M38.2491 86.0758C38.6 86.1973 38.9508 86.3188 39.1847 86.4403C39.5356 86.5618 39.8866 86.6833 40.1205 86.8048C40.2375 86.4403 40.2374 85.9542 40.3544 85.3467C40.7053 83.6456 41.2902 81.58 42.5768 79.2714C42.8107 78.9069 42.9277 78.5423 43.1617 78.2993C44.9162 75.2617 47.0216 73.3176 48.4252 72.1025C47.1386 71.738 45.9689 71.4949 44.6823 71.1304C43.1617 71.0089 41.5242 70.7659 40.0036 70.6444C40.4715 71.8595 41.4072 74.4111 41.1733 77.6918C41.1733 78.0563 41.1733 78.2993 41.0563 78.6638C40.7054 81.337 39.7696 83.4026 38.9508 84.8607C38.7169 85.4682 38.483 85.8327 38.2491 86.0758Z" fill="#124350"/>
<path id="Vector_12" d="M8.07125 75.0187C9.12396 76.8413 11.2293 77.5703 12.8669 76.5982C14.2705 75.7477 14.8554 74.0466 14.2706 72.3455C14.1536 72.1025 14.0366 71.8595 13.9196 71.6165C13.8027 71.3735 13.6857 71.1305 13.4517 71.0089C12.2821 69.6724 10.5276 69.1863 9.00705 70.0369C7.48647 71.0089 7.01854 73.1961 8.07125 75.0187Z" fill="#124350"/>
<path id="Vector_13" d="M12.1652 71.495C12.2822 71.738 12.5162 72.1025 12.6331 72.3455C12.7501 72.5885 12.9841 72.953 13.101 73.196C13.4519 72.953 13.8028 72.5885 14.2707 72.3455C15.7913 71.2519 17.6627 70.0369 19.8851 68.9433C22.2244 67.8497 24.3298 66.9992 26.3183 66.5132C27.0201 66.2702 27.722 66.1487 28.3068 66.0272C27.839 65.4196 27.371 64.9336 26.9031 64.3261C26.4353 63.597 25.9675 62.7465 25.4996 62.0174C25.1487 62.3819 24.7977 62.868 24.4468 63.354C23.2772 64.8121 21.6397 66.3917 19.4173 67.9713C17.3119 69.4293 15.3235 70.4014 13.5689 71.0089C12.9841 71.2519 12.5161 71.3734 12.1652 71.495Z" fill="#124350"/>
<path id="Vector_14" d="M61.0578 11.1061C60.4729 12.8072 61.5256 14.8728 63.514 15.6019C65.5025 16.3309 67.6079 15.4804 68.3097 13.7793C68.8945 12.0782 67.8418 10.0126 65.8534 9.28355C63.865 8.55451 61.6426 9.28355 61.0578 11.1061Z" fill="#124350"/>
<path id="Vector_15" d="M63.046 13.7793C63.3969 13.9008 63.7479 14.0223 63.9818 14.1438C64.3327 14.2653 64.6835 14.3868 64.9174 14.5083C64.2156 15.7234 63.3969 17.4245 62.929 19.2471C61.5254 24.1074 62.2272 28.3601 62.929 30.6687C61.4085 30.1827 59.8879 29.8182 58.3673 29.3321C57.1976 28.7246 56.1449 28.2386 54.9752 27.631C57.0806 25.93 58.4843 24.2289 59.537 23.0138C60.5897 21.5557 61.4085 20.5837 62.1103 19.0041C62.9291 16.9385 63.046 14.9944 63.046 13.7793Z" fill="#124350"/>
<path id="Vector_16" d="M16.8439 17.1815C17.8966 18.3966 19.8851 18.5181 21.4057 17.6675C21.6396 17.546 21.7566 17.4245 21.9905 17.1815C22.2245 17.06 22.3415 16.817 22.4584 16.6954C23.6281 15.3589 23.6281 13.4148 22.5754 12.1997C21.2887 10.8631 19.0663 10.8631 17.4288 12.1997C15.9082 13.5363 15.5573 15.8449 16.8439 17.1815Z" fill="#124350"/>
<path id="Vector_17" d="M20.2359 16.8169C20.5868 17.06 20.9377 17.303 21.4056 17.6675C22.8092 18.7611 24.4468 20.3406 25.8504 22.4063C27.371 24.7149 28.3067 26.902 28.8915 28.8461C29.3594 30.5472 29.5933 32.0053 29.5933 32.9773C30.2951 31.3978 31.1139 29.8182 31.8157 28.1171C34.0381 27.388 35.0907 26.902 35.0907 26.416C35.0907 26.173 34.7399 25.93 34.0381 25.6869C33.6872 25.5654 33.3363 25.4439 32.8684 25.2009C31.2309 24.4719 29.0084 23.3783 26.786 21.4342C24.7976 19.7331 23.511 17.9105 22.5752 16.4524C22.3413 15.9664 22.1074 15.6019 21.8735 15.2374C21.6395 15.4804 21.4055 15.7234 21.0546 15.9664C20.7037 16.3309 20.4698 16.5739 20.2359 16.8169Z" fill="#124350"/>
<path id="Vector_18" d="M61.2915 91.7866C61.9933 93.4877 64.0987 94.3382 66.0871 93.4877C68.0756 92.7586 69.1283 90.693 68.4265 88.9919C67.8416 87.5338 66.0871 86.6833 64.3326 87.0478C64.0987 87.0478 63.8648 87.1693 63.6308 87.2908C63.3969 87.4123 63.163 87.5338 62.929 87.6553C61.5254 88.5059 60.7066 90.207 61.2915 91.7866Z" fill="#124350"/>
<path id="Vector_19" d="M56.1448 74.2896C57.0805 75.3832 58.1333 76.7197 59.1861 78.4208C59.7709 79.3929 60.3556 80.3649 60.8235 81.4585C61.8762 83.7671 62.5781 85.8327 62.929 87.6553C63.0459 88.1414 63.163 88.6274 63.2799 88.9919C63.6308 88.8704 63.8647 88.7489 64.2156 88.6274C64.5665 88.5059 64.8005 88.3844 65.1514 88.2629C64.9174 87.8984 64.6834 87.5338 64.3325 87.0478C63.3968 85.5897 62.4611 83.5241 61.7593 81.094C61.4084 80.0004 61.2914 78.7854 61.1744 77.8133C60.9405 75.7477 61.0575 74.0466 61.1744 72.8315C60.2387 73.0745 59.186 73.3176 58.2503 73.5606C57.6654 73.8036 56.8466 74.0466 56.1448 74.2896Z" fill="#124350"/>
<path id="Vector_20" d="M79.4216 87.0478C80.7083 88.3844 83.0476 88.1414 84.5682 86.6833C86.0888 85.2252 86.2057 82.9166 84.8021 81.58C83.6324 80.4864 81.7611 80.3649 80.2405 81.4585C80.0065 81.58 79.8896 81.823 79.6556 81.9445C79.4217 82.1875 79.3047 82.309 79.1877 82.5521C78.252 84.1316 78.2519 85.9542 79.4216 87.0478Z" fill="#124350"/>
<path id="Vector_21" d="M66.9058 72.953C67.4907 73.196 68.1925 73.5606 68.7773 73.9251C70.5318 74.8971 72.5203 76.2337 74.6257 77.9348C76.4972 79.5144 78.0178 81.2155 79.1874 82.6736C79.5383 83.0381 79.7722 83.4026 80.0062 83.7671C80.2401 83.5241 80.474 83.2811 80.7079 83.0381C80.9419 82.7951 81.1759 82.5521 81.4099 82.309C81.059 82.066 80.5911 81.823 80.2402 81.4585C78.8366 80.4864 77.0819 79.0284 75.4444 76.9628C73.8068 74.8971 72.6372 72.953 71.9354 71.2519C71.8184 71.1304 71.8185 70.8874 71.7015 70.7659C71.5845 70.4014 71.3506 70.0369 71.2336 69.6724C70.9997 69.9154 70.7657 70.0369 70.5318 70.2799C70.0639 70.6444 69.5961 71.1304 69.1283 71.495C68.4265 72.1025 67.7246 72.467 66.9058 72.953Z" fill="#124350"/>
<path id="Vector_22" d="M98.1364 56.7927C96.2649 56.4281 94.5104 57.7647 94.0425 59.8303C93.6916 61.8959 94.8614 63.8401 96.6159 64.2046C98.4874 64.5691 100.242 63.2325 100.71 61.1669C101.178 59.1013 100.008 57.1572 98.1364 56.7927Z" fill="#124350"/>
<path id="Vector_23" d="M95.797 59.2228C95.68 59.5873 95.6801 59.9518 95.5631 60.1949C95.4462 60.5594 95.4461 60.9239 95.3291 61.1669C93.2237 60.4379 90.6504 59.7088 87.6093 59.2228C84.1003 58.7368 81.0591 58.7368 78.7198 58.9798C78.9537 58.3723 79.3046 57.7647 79.5385 57.1572C79.6555 56.1851 79.8894 55.2131 80.0064 54.241C81.6439 55.4561 84.2173 57.0357 87.8433 58.1292C91.0014 59.1013 93.8086 59.2228 95.797 59.2228Z" fill="#124350"/>
<path id="Vector_24" d="M86.2058 24.8364C84.5683 25.6869 84.1004 27.8741 85.0361 29.8182C86.0888 31.6408 88.1942 32.3698 89.8318 31.5193C91.4693 30.6687 91.9372 28.4816 91.0014 26.5375C89.9487 24.7149 87.8433 23.9858 86.2058 24.8364Z" fill="#124350"/>
<path id="Vector_25" d="M85.8546 28.2386C85.9715 28.4816 86.2055 28.8461 86.3225 29.0891C86.4394 29.3322 86.6734 29.6967 86.7904 29.9397C85.0359 30.4257 82.3455 31.3978 79.5383 33.3419C76.3802 35.529 74.3918 38.0806 73.3391 39.7817C72.8712 38.8097 72.4033 37.8376 71.9354 36.8656C71.3506 35.8935 70.8828 34.9214 70.298 34.0709C72.2864 34.0709 75.4444 33.8279 78.9535 32.4913C82.2285 31.1547 84.5679 29.4536 85.8546 28.2386Z" fill="#124350"/>
<path id="Vector_26" d="M10.0597 31.0332C11.4633 31.8838 13.3347 31.3977 14.3875 30.0612C14.6214 29.8182 14.7384 29.6967 14.8553 29.4536C14.9723 29.2106 15.0892 28.9676 15.2062 28.7246C15.791 27.0235 15.2062 25.3224 13.8026 24.4719C12.1651 23.4998 10.0597 24.2289 9.00697 26.0515C7.95426 27.8741 8.42216 30.0612 10.0597 31.0332Z" fill="#124350"/>
<path id="Vector_27" d="M13.101 29.5751C13.5689 29.6967 13.9198 29.9397 14.3876 30.0612C16.1422 30.7902 18.1306 31.7623 20.236 33.0988C21.6396 34.0709 22.9262 35.0429 23.9789 35.8935C24.0959 36.015 24.096 36.015 24.213 36.1365C25.2657 36.6225 26.3183 37.1086 27.371 37.5946L27.8389 36.744C27.9559 36.501 28.1898 36.1365 28.3068 35.8935C27.2541 35.286 26.2014 34.5569 25.2657 33.9494H25.1486C23.862 33.4634 22.3414 32.9773 20.8209 32.2483C18.5985 31.1547 16.7269 29.9397 15.2064 28.7246C14.8555 28.4816 14.3876 28.1171 14.0367 27.8741C13.9197 28.1171 13.6859 28.4816 13.5689 28.7246C13.452 28.9676 13.335 29.2106 13.101 29.5751Z" fill="#124350"/>
<path id="Vector_28" d="M84.4508 74.6541C84.5678 74.7756 84.8017 74.8971 85.0356 74.8971C85.6205 75.1401 86.3222 75.1401 87.024 75.0186C88.0767 74.7756 89.1295 73.9251 89.5974 72.71C90.4162 70.7659 89.5974 68.5788 87.8429 67.9713C86.3223 67.3637 84.5677 68.0928 83.6319 69.5508C83.515 69.7938 83.3981 70.0369 83.2811 70.2799C83.2811 70.4014 83.1642 70.5229 83.1642 70.5229C82.5793 72.1025 83.1642 73.8036 84.4508 74.6541Z" fill="#124350"/>
<path id="Vector_29" d="M86.5564 70.0369C86.4394 70.4014 86.3226 70.6444 86.2056 71.0089C86.0886 71.3735 85.9716 71.6165 85.8546 71.981C84.2171 70.8874 81.7608 69.5509 78.6027 68.5788C75.4446 67.6068 72.5204 67.3637 70.5319 67.2422C70.7658 66.5132 70.8828 65.6626 71.1167 64.9336C71.7016 63.84 72.2864 62.868 72.7543 61.7744C73.807 63.2325 75.7955 65.5411 79.0706 67.4852C81.9948 69.3078 84.8019 69.9154 86.5564 70.0369Z" fill="#124350"/>
<path id="Vector_30" d="M47.3724 96.8899C47.3724 98.7124 49.127 100.292 51.2324 100.292C53.3378 100.292 55.0924 98.834 55.0924 96.8899C55.0924 95.3103 53.8056 93.9737 52.0511 93.6092C51.8172 93.6092 51.4663 93.4877 51.2324 93.4877C50.9985 93.4877 50.6476 93.4877 50.4137 93.6092C48.6592 93.9737 47.3724 95.3103 47.3724 96.8899Z" fill="#124350"/>
<path id="Vector_31" d="M50.6475 85.2252C50.7645 88.3844 50.6476 91.179 50.4137 93.6092C50.4137 94.0952 50.2966 94.5812 50.1796 94.9457H52.2851C52.1681 94.4597 52.1681 94.0952 52.0511 93.6092C51.7002 91.3005 51.5833 88.5059 51.8172 85.2252C51.9342 83.0381 52.285 81.094 52.6359 79.3929C52.9868 77.8133 53.3377 76.3552 53.8056 75.1402C52.9868 75.1402 52.1681 75.1402 51.3493 75.1402C50.6475 75.1402 49.9458 75.2617 49.244 75.2617C49.5949 76.4767 49.9457 77.9348 50.1796 79.3929C50.2966 81.2155 50.5306 83.1596 50.6475 85.2252Z" fill="#124350"/>
<path id="Vector_32" d="M0.819223 51.6894C0.936191 53.755 2.45677 55.4561 4.32825 55.3346C5.9658 55.3346 7.25238 53.998 7.48632 52.2969C7.48632 52.0539 7.60326 51.6894 7.60326 51.4464C7.60326 51.2034 7.60329 50.8388 7.48632 50.5958C7.13542 48.8947 5.73178 47.6797 4.09423 47.8012C2.22275 47.9227 0.702255 49.6238 0.819223 51.6894Z" fill="#124350"/>
<path id="Vector_33" d="M6.08278 50.5958C6.08278 50.9603 6.08278 51.3249 6.08278 51.5679C6.08278 51.9324 6.08278 52.2969 6.08278 52.5399C6.55065 52.4184 7.01846 52.4184 7.48633 52.2969C9.94265 51.9324 12.75 51.6894 15.9081 51.8109C17.6626 51.8109 19.3001 51.9324 20.9376 52.0539C22.9261 52.1754 24.7976 52.4184 26.4352 52.7829C26.3182 52.1754 26.3181 51.5679 26.2011 51.0818C26.2011 50.4743 26.3181 49.8668 26.3181 49.2592C24.6805 49.6238 22.8091 49.9883 20.8207 50.3528C19.3001 50.5958 17.6626 50.7173 15.9081 50.8388C12.75 51.0818 9.94265 50.9603 7.48633 50.7173C6.90149 50.5958 6.43368 50.5958 6.08278 50.5958Z" fill="#124350"/>
<path id="Vector_34" d="M96.265 48.0442C94.3935 48.2872 92.756 46.7076 92.5221 44.642C92.2881 42.5764 93.5748 40.7538 95.4463 40.5108C97.3177 40.2677 98.9552 41.8473 99.1892 43.9129C99.5401 45.9786 98.1365 47.8011 96.265 48.0442Z" fill="#124350"/>
<path id="Vector_35" d="M96.0309 45.371C96.0309 45.0065 95.9138 44.642 95.9138 44.399C95.9138 44.0344 95.7969 43.6699 95.7969 43.4269C93.3405 44.1559 89.9486 44.7635 86.0886 44.885C81.8778 45.0065 78.3687 44.5205 75.7954 43.9129C75.9124 44.7635 75.9123 45.614 76.0293 46.5861C76.0293 47.4366 76.1464 48.2872 76.1464 49.1377C78.7197 48.0442 82.1117 46.8291 86.3225 46.1001C89.9485 45.2495 93.3406 45.128 96.0309 45.371Z" fill="#124350"/>
<path id="Vector_36" d="M20.4699 89.8425C22.1074 91.0575 24.4468 90.936 25.6165 89.4779C26.5522 88.2629 26.4354 86.3188 25.2657 85.1037C25.1487 84.8607 24.9148 84.7392 24.6808 84.4962C24.4469 84.3747 24.2129 84.1316 23.9789 84.0101C22.4583 83.2811 20.5869 83.5241 19.5342 84.7392C18.3646 86.3188 18.8323 88.6274 20.4699 89.8425Z" fill="#124350"/>
<path id="Vector_37" d="M22.9263 85.1037C23.1602 85.3467 23.5111 85.4682 23.745 85.7112C23.9789 85.9542 24.3298 86.0758 24.5637 86.3188C24.7977 85.9542 25.0317 85.4682 25.2656 85.1037C26.4353 83.1596 28.0728 80.7295 30.1782 78.2993C31.5818 76.7198 32.9854 75.3832 34.389 74.2896C35.7926 73.0745 37.1963 72.224 38.366 71.495C37.5472 71.0089 36.7284 70.4014 35.9097 69.9154C35.2079 69.5508 34.6229 69.0648 33.9211 68.7003C33.4533 69.9154 32.8685 71.2519 32.0497 72.71C31.2309 74.2896 30.2952 75.8692 29.1255 77.5703C27.371 80.2434 25.4995 82.3091 23.745 84.0101C23.5111 84.4962 23.1602 84.8607 22.9263 85.1037Z" fill="#124350"/>
<path id="Vector_38" d="M79.6553 15.4804C79.4214 15.2374 79.0704 15.1159 78.8365 14.8729C78.6025 14.6298 78.2517 14.5083 78.0178 14.2653C76.965 16.3309 75.2105 19.3686 72.1694 22.2848C68.4264 25.93 64.5665 27.6311 62.1102 28.6031C63.6308 29.3322 65.0343 30.0612 66.5549 30.7902C68.0754 31.7623 69.5961 32.7343 71.1166 33.7064C70.9997 31.6408 71.2336 27.6311 73.456 23.1353C75.3275 19.1256 78.0178 16.6955 79.6553 15.4804Z" fill="#124350"/>
<path id="Vector_39" d="M82.9304 15.7234C81.7607 17.1815 79.5383 17.303 77.7838 16.0879C76.1463 14.8728 75.6785 12.5642 76.8482 11.1062C78.0178 9.64807 80.2402 9.52656 81.9948 10.7416C83.6323 11.9567 84.1001 14.1438 82.9304 15.7234Z" fill="#124350"/>
<path id="Vector_40" d="M43.6296 43.7914C45.7614 43.7914 47.4896 42.105 47.4896 40.0247C47.4896 37.9444 45.7614 36.258 43.6296 36.258C41.4978 36.258 39.7696 37.9444 39.7696 40.0247C39.7696 42.105 41.4978 43.7914 43.6296 43.7914Z" fill="#165161"/>
<path id="Vector_41" d="M67.7247 61.7744C69.8565 61.7744 71.5847 60.088 71.5847 58.0077C71.5847 55.9274 69.8565 54.241 67.7247 54.241C65.5929 54.241 63.8649 55.9274 63.8649 58.0077C63.8649 60.088 65.5929 61.7744 67.7247 61.7744Z" fill="#165161"/>
<path id="Vector_42" d="M38.5999 60.5594C38.5999 62.625 40.3545 64.3261 42.4599 64.3261C44.5653 64.3261 46.3199 62.625 46.3199 60.5594C46.3199 58.4937 44.5653 56.7926 42.4599 56.7926C40.3545 56.7926 38.5999 58.4937 38.5999 60.5594Z" fill="#165161"/>
<path id="Vector_43" d="M26.7862 46.8291C26.7862 48.8947 28.5408 50.5958 30.6462 50.5958C32.7516 50.5958 34.506 48.8947 34.506 46.8291C34.506 44.7635 32.7516 43.0624 30.6462 43.0624C28.5408 43.0624 26.7862 44.642 26.7862 46.8291Z" fill="#165161"/>
<path id="Vector_44" d="M40.8222 26.902C40.8222 28.2386 41.9919 29.4536 43.3955 29.4536C44.7992 29.4536 45.9688 28.3601 45.9688 26.902C45.9688 25.4439 44.7992 24.3504 43.3955 24.3504C41.9919 24.3504 40.8222 25.5654 40.8222 26.902Z" fill="#165161"/>
<path id="Vector_45" d="M49.9457 70.7659C49.9457 72.1025 51.1153 73.3176 52.5189 73.3176C53.9225 73.3176 55.0923 72.224 55.0923 70.7659C55.0923 69.3078 53.9225 68.2143 52.5189 68.2143C51.1153 68.2143 49.9457 69.3078 49.9457 70.7659Z" fill="#165161"/>
<path id="Vector_46" d="M74 44.5516C74 45.8882 75.1696 47.1033 76.5732 47.1033C77.9768 47.1033 79.1466 46.0097 79.1466 44.5516C79.1466 43.0935 77.9768 42 76.5732 42C75.1696 42.1215 74 43.2151 74 44.5516Z" fill="#165161"/>
<path id="Vector_47" d="M48.8932 48.5302C48.8932 49.8668 50.0629 51.0818 51.4665 51.0818C52.8701 51.0818 54.0398 49.9883 54.0398 48.5302C54.0398 47.1936 52.8701 45.9786 51.4665 45.9786C50.0629 45.9786 48.8932 47.1936 48.8932 48.5302Z" fill="#165161"/>
<path id="Vector_48" opacity="0.18" d="M62.6953 39.4172C64.9177 43.4269 69.0115 45.4925 71.8187 44.0344C74.6259 42.5764 75.0939 38.0806 72.7545 33.9494C70.5321 29.9397 66.4382 27.8741 63.631 29.3321C60.9407 30.9117 60.473 35.4075 62.6953 39.4172Z" fill="white"/>
<path id="Vector_49" opacity="0.18" d="M69.1283 53.269C69.2453 55.6991 70.7658 57.6432 72.4033 57.5217C74.0408 57.4002 75.3275 55.3346 75.2105 53.0259C75.0936 50.5958 73.5729 48.6517 71.9354 48.7732C70.2979 48.7732 69.0113 50.8388 69.1283 53.269Z" fill="white"/>
<path id="Vector_50" opacity="0.36" d="M0.819234 51.6894C0.936202 53.755 2.45678 55.4561 4.32826 55.3346C5.96581 55.3346 7.2524 53.998 7.48633 52.2969C9.94265 51.9324 12.75 51.6894 15.9081 51.8109C17.6626 51.8109 19.3001 51.9324 20.9376 52.0539C21.0546 53.6335 21.4056 55.2131 21.7565 56.7926C20.9377 57.1572 20.1188 57.6432 19.1831 58.0077C16.7268 58.9798 14.5044 59.3443 12.7499 59.4658C12.0481 57.8862 10.4105 56.9142 8.77295 57.2787C7.01843 57.7647 5.96572 59.7088 6.43359 61.7744C6.90146 63.84 8.89003 65.0551 10.6445 64.5691C12.2821 64.2046 13.2178 62.5035 13.1008 60.8024C14.7384 60.0733 16.8438 59.3443 19.4171 58.9798C20.4698 58.8583 21.4055 58.7368 22.2242 58.7368C22.8091 60.4379 23.394 61.8959 24.2128 63.4755C23.0431 64.9336 21.4055 66.5132 19.1831 68.0928C17.0777 69.5509 15.0892 70.5229 13.3347 71.1304C12.165 69.7939 10.4106 69.3078 8.89003 70.1584C7.25248 71.1304 6.78458 73.3176 7.83729 75.1402C8.89 76.9628 10.9954 77.6918 12.6329 76.7198C14.0365 75.8692 14.6213 74.1681 14.0365 72.467C15.5571 71.3735 17.4286 70.1584 19.651 69.0648C21.9903 67.9713 24.0958 67.1207 26.0842 66.6347C27.1369 68.0928 28.3066 69.4293 29.4763 70.7659C30.2951 71.495 31.1138 72.224 31.9326 72.953C31.1138 74.5326 30.1781 76.1122 29.0084 77.8133C27.2539 80.4864 25.3824 82.5521 23.6279 84.2532C22.1073 83.5241 20.2358 83.7671 19.1831 84.9822C18.0134 86.4403 18.4813 88.6274 20.1189 89.964C21.7564 91.179 24.0958 91.0575 25.2655 89.5994C26.2012 88.3844 26.0842 86.4403 24.9145 85.2252C26.0842 83.2811 27.7217 80.851 29.8271 78.4208C31.2307 76.8412 32.6345 75.5047 34.0381 74.4111C36.1435 75.7477 38.4827 76.9628 40.939 77.8133C40.939 78.1778 40.9391 78.4208 40.8221 78.7854C40.4712 81.4585 39.5355 83.5241 38.7168 84.9822C36.9623 84.6177 35.2077 85.4682 34.6229 87.0478C34.0381 88.7489 35.0907 90.8145 37.0792 91.422C39.0676 92.1511 41.173 91.3005 41.8748 89.4779C42.4597 88.0199 41.6409 86.1973 40.1203 85.3467C40.4712 83.6456 41.0561 81.58 42.3427 79.2714C42.5767 78.9069 42.6936 78.5424 42.9276 78.2993C45.15 78.9069 47.3724 79.2714 49.8287 79.3929C50.1796 81.2155 50.4135 83.1596 50.5305 85.2252C50.6474 88.3844 50.5304 91.179 50.2964 93.6092C48.5419 93.9737 47.2553 95.3103 47.2553 96.8898C47.2553 98.7124 49.0099 100.292 51.1153 100.292C53.2207 100.292 54.9752 98.8339 54.9752 96.8898C54.9752 95.3103 53.6885 93.9737 51.934 93.6092C51.5831 91.3005 51.4662 88.5059 51.7001 85.2252C51.8171 83.0381 52.168 81.094 52.5189 79.3929C54.7412 79.2714 56.9636 78.9069 59.069 78.4208C59.6539 79.3929 60.2387 80.3649 60.7066 81.4585C61.7593 83.7671 62.4612 85.8327 62.8121 87.6553C61.2915 88.6274 60.5897 90.3285 61.1745 91.7866C61.8763 93.4877 63.9817 94.3382 65.9701 93.4877C67.9586 92.7586 69.0113 90.693 68.3095 88.9919C67.7247 87.5338 65.9701 86.6833 64.2156 87.0478C63.2799 85.5897 62.3442 83.5241 61.6424 81.094C61.2915 80.0004 61.1745 78.7854 61.0576 77.8133C63.7478 76.8412 66.3211 75.5047 68.6605 73.9251C70.415 74.8971 72.4034 76.2337 74.5088 77.9348C76.3803 79.5144 77.9009 81.2155 79.0706 82.6736C78.1349 84.1316 78.1348 85.9543 79.3045 87.0478C80.5911 88.3844 82.9305 88.1414 84.4511 86.6833C85.9717 85.2252 86.0886 82.9166 84.685 81.58C83.5153 80.4865 81.6438 80.3649 80.1232 81.4585C78.7196 80.4864 76.9651 79.0284 75.3275 76.9628C73.69 74.8971 72.5203 72.953 71.8185 71.252C71.9355 71.1304 72.0525 71.0089 72.1695 71.0089C71.9355 70.8874 71.8186 70.8874 71.5846 70.7659C71.5846 70.7659 70.9998 70.5229 70.415 70.2799C51.5832 61.7744 43.9803 43.6699 43.9803 43.6699C40.2373 34.6784 40.0034 26.416 40.4713 20.9482C40.2373 21.0697 40.0033 21.0697 39.7694 21.1912C39.1845 20.4622 38.7167 19.6116 38.2489 18.7611C37.898 18.032 37.547 17.1815 37.1961 16.4524C38.5997 15.3589 38.9507 13.4148 38.1319 12.0782C37.1962 10.4986 34.9738 10.0126 33.1023 11.1062C31.2308 12.1997 30.5289 14.3868 31.5816 15.9664C32.4004 17.4245 34.2719 17.9105 36.0265 17.1815C36.4943 17.6675 36.9621 18.275 37.43 19.0041C38.0149 19.8546 38.3659 20.7052 38.7168 21.6772C36.4944 22.6493 34.3889 23.8643 32.5174 25.3224C30.8799 24.5934 28.6576 23.4998 26.4352 21.5557C24.4467 19.8546 23.16 18.032 22.2242 16.574C23.3939 15.2374 23.394 13.2933 22.3413 12.0782C21.0547 10.7416 18.8322 10.7416 17.1947 12.0782C15.5572 13.4148 15.3232 15.7234 16.6099 17.06C17.6626 18.275 19.6511 18.3966 21.1716 17.546C22.5752 18.6396 24.2127 20.2191 25.6163 22.2848C27.1369 24.5934 28.0726 26.7805 28.6574 28.7246C27.2538 30.1827 25.9672 31.8838 24.9145 33.7064C23.6279 33.2204 22.1074 32.7343 20.5868 32.0053C18.3644 30.9117 16.4929 29.6967 14.9723 28.4816C15.5571 26.7805 14.9723 25.0794 13.5687 24.2289C11.9312 23.2568 9.82565 23.9858 8.77295 25.8084C7.72024 27.631 8.18814 29.8182 9.82568 30.7902C11.2293 31.6408 13.1009 31.1547 14.1536 29.8182C15.9081 30.5472 17.8965 31.5193 20.002 32.8558C21.4056 33.8279 22.6922 34.7999 23.7449 35.6505C22.8091 37.5946 21.9903 39.6602 21.5224 41.7258C20.7037 41.9688 19.651 42.0904 18.4813 42.0904C16.025 42.0904 14.1535 41.2398 12.8668 40.5108C13.1007 38.6882 12.0481 36.9871 10.4105 36.501C8.65601 36.015 6.66759 37.3516 6.19972 39.2957C5.61488 41.3613 6.66759 43.3054 8.53907 43.7914C10.1766 44.156 11.8142 43.3054 12.516 41.6043C14.0366 41.7258 15.908 42.0903 18.0134 42.9409C19.1831 43.4269 20.2358 44.156 20.9376 44.642C20.7037 45.9786 20.5868 47.4366 20.5868 48.8947C20.5868 49.1377 20.5868 49.5023 20.5868 49.7453C19.0662 49.9883 17.4286 50.1098 15.6741 50.2313C12.5159 50.4743 9.70877 50.3528 7.25245 50.1098C6.90155 48.4087 5.49791 47.1936 3.86036 47.3151C2.22282 47.9227 0.702266 49.6238 0.819234 51.6894Z" fill="#041E24"/>
</g>
</svg>
